{"title":"Hotel Transylvania 2012 Cam XviD Feel-Free","uid":7708223,"size":801300532,"categoryP":"video","categoryS":"movies","magnet":"?xt=urn:btih:616dd94a5a1540af5909f501505f4d517d3a1407&amp;dn=Hotel+Transylvania+2012+Cam+XviD+Feel-Free&amp;tr=udp%3A%2F%2Ftracker.openbittorrent.com%3A80&amp;tr=udp%3A%2F%2Fopen.demonii.com%3A1337&amp;tr=udp%3A%2F%2Ftracker.coppersurfer.tk%3A6969&amp;tr=udp%3A%2F%2Fexodus.desync.com%3A6969","seeders":1,"leechers":0,"uploader":".BONE.","files":8,"time":1349740701,"description":"Genre: Animation | Comedy | Family\nLanguage:English &lt;a href=&quot;\nhttp://www.imdb.com/title/tt0837562/&quot; rel=&quot;nofollow&quot; target=&quot;_NEW&quot;&gt;\nhttp://www.imdb.com/title/tt0837562/&lt;/a&gt;\nSource:NoGRP Thanks\nEncoder:Tony\n\nFormat : AVI\nFormat/Info : Audio Video Interleave\nFile size : 763 MiB\nDuration : 1h 25mn\nOverall bit rate : 1 245 Kbps\nWriting application : Lavf52.57.1\n\nVideo\nID : 0\nFormat : MPEG-4 Visual\nFormat profile : Simple@L5\nFormat settings, BVOP : No\nFormat settings, QPel : No\nFormat settings, GMC : No warppoints\nFormat settings, Matrix : Default (H.263)\nCodec ID : XVID\nCodec ID/Hint : XviD\nDuration : 1h 25mn\nBit rate : 1 103 Kbps\nWidth : 640 pixels\nHeight : 360 pixels\nDisplay aspect ratio : 16:9\nFrame rate : 29.970 fps\nColor space : YUV\nChroma subsampling : 4:2:0\nBit depth : 8 bits\nScan type : Progressive\nCompression mode : Lossy\nBits/(Pixel*Frame) : 0.160\nStream size : 676 MiB (89%)\nWriting library : XviD 64\n\nAudio\nID : 1\nFormat : MPEG Audio\nFormat version : Version 1\nFormat profile : Layer 3\nMode : Joint stereo\nMode extension : MS Stereo\nCodec ID : 55\nCodec ID/Hint : MP3\nDuration : 1h 25mn\nBit rate mode : Constant\nBit rate : 128 Kbps\nChannel(s) : 2 channels\nSampling rate : 48.0 KHz\nCompression mode : Lossy\nStream size : 78.4 MiB (10%)\nAlignment : Aligned on interleaves\nInterleave, duration : 24 ms (0.72 video frame)\nInterleave, preload duration : 504 ms\n\n\nPlot:\nDracula, who operates a high-end resort away from the human world, goes into overprotective mode when a boy discovers the resort and falls for the count's teen-aged daughter.\n &lt;a href=&quot;\nhttp://imageshack.us/a/img221/1671/vlcsnap2012100823h07m06.png&quot; rel=&quot;nofollow&quot; target=&quot;_NEW&quot;&gt;\nhttp://imageshack.us/a/img221/1671/vlcsnap2012100823h07m06.png&lt;/a&gt; &lt;a href=&quot;\nhttp://imageshack.us/a/img40/2444/vlcsnap2012100823h09m42.png&quot; rel=&quot;nofollow&quot; target=&quot;_NEW&quot;&gt;\nhttp://imageshack.us/a/img40/2444/vlcsnap2012100823h09m42.png&lt;/a&gt; &lt;a href=&quot;\nhttp://imageshack.us/a/img577/5828/vlcsnap2012100823h07m51.png&quot; rel=&quot;nofollow&quot; target=&quot;_NEW&quot;&gt;\nhttp://imageshack.us/a/img577/5828/vlcsnap2012100823h07m51.png&lt;/a&gt; &lt;a href=&quot;\nhttp://imageshack.us/a/img845/8695/vlcsnap2012100823h09m02.png&quot; rel=&quot;nofollow&quot; target=&quot;_NEW&quot;&gt;\nhttp://imageshack.us/a/img845/8695/vlcsnap2012100823h09m02.png&lt;/a&gt;","torrent":{"xt":"urn:btih:616dd94a5a1540af5909f501505f4d517d3a1407","amp;dn":"Hotel+Transylvania+2012+Cam+XviD+Feel-Free","amp;tr":["udp%3A%2F%2Ftracker.openbittorrent.com%3A80","udp%3A%2F%2Fopen.demonii.com%3A1337","udp%3A%2F%2Ftracker.coppersurfer.tk%3A6969","udp%3A%2F%2Fexodus.desync.com%3A6969"],"infoHash":"616dd94a5a1540af5909f501505f4d517d3a1407","infoHashBuffer":{"type":"Buffer","data":[97,109,217,74,90,21,64,175,89,9,245,1,80,95,77,81,125,58,20,7]},"announce":[],"urlList":[]}}